<svg id="visual" viewBox="0 0 900 450" width="900" height="450" xmlns="http://www.w3.org/2000/svg" xmlns:xlink="http://www.w3.org/1999/xlink" version="1.1"><rect x="0" y="0" width="900" height="450" fill="#FF0066"></rect><g transform="translate(455.8002911657923 225.98986080563398)"><path d="M121.8 -200.6C156.6 -190.9 182.6 -155.7 203.1 -118C223.5 -80.3 238.2 -40.2 240.4 1.2C242.6 42.7 232.1 85.3 204.6 110.7C177.1 136.1 132.5 144.2 95.5 160C58.6 175.8 29.3 199.4 -1.3 201.6C-31.8 203.8 -63.7 184.6 -104.3 170.9C-144.9 157.1 -194.2 148.9 -221.5 121.3C-248.7 93.8 -253.9 46.9 -251.9 1.1C-250 -44.7 -241.1 -89.3 -216.6 -121.8C-192.2 -154.3 -152.4 -174.6 -113.7 -182.1C-75 -189.6 -37.5 -184.3 3 -189.5C43.5 -194.7 87 -210.4 121.8 -200.6" fill="#BB004B"></path></g></svg>