<svg id="visual" viewBox="0 0 1920 1080" width="1920" height="1080" xmlns="http://www.w3.org/2000/svg" xmlns:xlink="http://www.w3.org/1999/xlink" version="1.1"><rect x="0" y="0" width="1920" height="1080" fill="#020202"></rect><g transform="translate(954.2242544020214 540.7449309632674)"><path d="M206.5 -345.2C265.9 -323.3 311.4 -264.6 348 -201C384.5 -137.3 412.3 -68.7 415.6 1.9C418.9 72.5 397.8 145 367.5 219.5C337.1 294 297.6 370.4 234.8 395.8C172 421.2 86 395.6 -0.6 396.6C-87.2 397.6 -174.3 425.3 -243.6 403.6C-312.9 382 -364.3 311 -380 235.5C-395.8 160 -375.9 80 -380.7 -2.7C-385.4 -85.5 -414.8 -171 -400.5 -248.9C-386.2 -326.9 -328.1 -397.3 -254 -410.8C-180 -424.3 -90 -380.9 -8.3 -366.6C73.5 -352.3 147 -367.1 206.5 -345.2" fill="#cee300"></path></g></svg>