<svg id="visual" viewBox="0 0 1920 1080" width="1920" height="1080" xmlns="http://www.w3.org/2000/svg" xmlns:xlink="http://www.w3.org/1999/xlink" version="1.1"><rect x="0" y="0" width="1920" height="1080" fill="#020202"></rect><g transform="translate(968.5146186860061 516.8168568949815)"><path d="M412.2 -692.5C537.8 -641.5 645.6 -538.3 726.6 -414.1C807.6 -290 861.8 -145 838.5 -13.4C815.3 118.1 714.5 236.3 634.8 362.5C555 488.8 496.3 623.3 394 702.9C291.7 782.5 145.8 807.3 -4.3 814.8C-154.5 822.3 -309 812.5 -434.6 746.4C-560.1 680.2 -656.8 557.6 -735.5 423.8C-814.3 290 -875.1 145 -858.1 9.8C-841.1 -125.3 -746.2 -250.7 -668.9 -387.1C-591.7 -523.5 -532.1 -670.9 -423.5 -731.8C-315 -792.6 -157.5 -766.8 -7.1 -754.5C143.3 -742.3 286.7 -743.5 412.2 -692.5" fill="#cee300"></path></g></svg>