<svg id="visual" viewBox="0 0 1920 1080" width="1920" height="1080" xmlns="http://www.w3.org/2000/svg" xmlns:xlink="http://www.w3.org/1999/xlink" version="1.1"><rect x="0" y="0" width="1920" height="1080" fill="#140021"></rect><path d="M0 1041L83 1041L83 983L167 983L167 995L250 995L250 992L334 992L334 955L417 955L417 985L501 985L501 1071L584 1071L584 1066L668 1066L668 948L751 948L751 933L835 933L835 930L918 930L918 936L1002 936L1002 1043L1085 1043L1085 985L1169 985L1169 1073L1252 1073L1252 1011L1336 1011L1336 969L1419 969L1419 924L1503 924L1503 954L1586 954L1586 1014L1670 1014L1670 967L1753 967L1753 923L1837 923L1837 999L1920 999L1920 982L1920 0L1920 0L1837 0L1837 0L1753 0L1753 0L1670 0L1670 0L1586 0L1586 0L1503 0L1503 0L1419 0L1419 0L1336 0L1336 0L1252 0L1252 0L1169 0L1169 0L1085 0L1085 0L1002 0L1002 0L918 0L918 0L835 0L835 0L751 0L751 0L668 0L668 0L584 0L584 0L501 0L501 0L417 0L417 0L334 0L334 0L250 0L250 0L167 0L167 0L83 0L83 0L0 0Z" fill="#839100"></path><path d="M0 841L83 841L83 863L167 863L167 837L250 837L250 923L334 923L334 915L417 915L417 875L501 875L501 860L584 860L584 839L668 839L668 967L751 967L751 837L835 837L835 846L918 846L918 835L1002 835L1002 851L1085 851L1085 942L1169 942L1169 919L1252 919L1252 831L1336 831L1336 906L1419 906L1419 863L1503 863L1503 870L1586 870L1586 970L1670 970L1670 894L1753 894L1753 893L1837 893L1837 954L1920 954L1920 964L1920 0L1920 0L1837 0L1837 0L1753 0L1753 0L1670 0L1670 0L1586 0L1586 0L1503 0L1503 0L1419 0L1419 0L1336 0L1336 0L1252 0L1252 0L1169 0L1169 0L1085 0L1085 0L1002 0L1002 0L918 0L918 0L835 0L835 0L751 0L751 0L668 0L668 0L584 0L584 0L501 0L501 0L417 0L417 0L334 0L334 0L250 0L250 0L167 0L167 0L83 0L83 0L0 0Z" fill="#8a9800"></path><path d="M0 794L83 794L83 796L167 796L167 827L250 827L250 785L334 785L334 775L417 775L417 910L501 910L501 802L584 802L584 790L668 790L668 912L751 912L751 861L835 861L835 864L918 864L918 792L1002 792L1002 885L1085 885L1085 864L1169 864L1169 807L1252 807L1252 775L1336 775L1336 837L1419 837L1419 912L1503 912L1503 819L1586 819L1586 871L1670 871L1670 902L1753 902L1753 851L1837 851L1837 774L1920 774L1920 865L1920 0L1920 0L1837 0L1837 0L1753 0L1753 0L1670 0L1670 0L1586 0L1586 0L1503 0L1503 0L1419 0L1419 0L1336 0L1336 0L1252 0L1252 0L1169 0L1169 0L1085 0L1085 0L1002 0L1002 0L918 0L918 0L835 0L835 0L751 0L751 0L668 0L668 0L584 0L584 0L501 0L501 0L417 0L417 0L334 0L334 0L250 0L250 0L167 0L167 0L83 0L83 0L0 0Z" fill="#909f00"></path><path d="M0 791L83 791L83 706L167 706L167 741L250 741L250 808L334 808L334 703L417 703L417 782L501 782L501 821L584 821L584 681L668 681L668 679L751 679L751 719L835 719L835 667L918 667L918 738L1002 738L1002 790L1085 790L1085 798L1169 798L1169 664L1252 664L1252 744L1336 744L1336 765L1419 765L1419 759L1503 759L1503 672L1586 672L1586 681L1670 681L1670 686L1753 686L1753 718L1837 718L1837 753L1920 753L1920 808L1920 0L1920 0L1837 0L1837 0L1753 0L1753 0L1670 0L1670 0L1586 0L1586 0L1503 0L1503 0L1419 0L1419 0L1336 0L1336 0L1252 0L1252 0L1169 0L1169 0L1085 0L1085 0L1002 0L1002 0L918 0L918 0L835 0L835 0L751 0L751 0L668 0L668 0L584 0L584 0L501 0L501 0L417 0L417 0L334 0L334 0L250 0L250 0L167 0L167 0L83 0L83 0L0 0Z" fill="#97a700"></path><path d="M0 705L83 705L83 711L167 711L167 639L250 639L250 643L334 643L334 696L417 696L417 628L501 628L501 711L584 711L584 642L668 642L668 640L751 640L751 616L835 616L835 661L918 661L918 600L1002 600L1002 608L1085 608L1085 657L1169 657L1169 694L1252 694L1252 730L1336 730L1336 723L1419 723L1419 729L1503 729L1503 648L1586 648L1586 689L1670 689L1670 695L1753 695L1753 663L1837 663L1837 662L1920 662L1920 733L1920 0L1920 0L1837 0L1837 0L1753 0L1753 0L1670 0L1670 0L1586 0L1586 0L1503 0L1503 0L1419 0L1419 0L1336 0L1336 0L1252 0L1252 0L1169 0L1169 0L1085 0L1085 0L1002 0L1002 0L918 0L918 0L835 0L835 0L751 0L751 0L668 0L668 0L584 0L584 0L501 0L501 0L417 0L417 0L334 0L334 0L250 0L250 0L167 0L167 0L83 0L83 0L0 0Z" fill="#9eae00"></path><path d="M0 627L83 627L83 560L167 560L167 602L250 602L250 652L334 652L334 590L417 590L417 498L501 498L501 535L584 535L584 522L668 522L668 536L751 536L751 574L835 574L835 515L918 515L918 571L1002 571L1002 645L1085 645L1085 610L1169 610L1169 627L1252 627L1252 655L1336 655L1336 537L1419 537L1419 607L1503 607L1503 549L1586 549L1586 614L1670 614L1670 638L1753 638L1753 627L1837 627L1837 499L1920 499L1920 633L1920 0L1920 0L1837 0L1837 0L1753 0L1753 0L1670 0L1670 0L1586 0L1586 0L1503 0L1503 0L1419 0L1419 0L1336 0L1336 0L1252 0L1252 0L1169 0L1169 0L1085 0L1085 0L1002 0L1002 0L918 0L918 0L835 0L835 0L751 0L751 0L668 0L668 0L584 0L584 0L501 0L501 0L417 0L417 0L334 0L334 0L250 0L250 0L167 0L167 0L83 0L83 0L0 0Z" fill="#a5b500"></path><path d="M0 551L83 551L83 532L167 532L167 468L250 468L250 510L334 510L334 567L417 567L417 541L501 541L501 516L584 516L584 504L668 504L668 454L751 454L751 444L835 444L835 520L918 520L918 561L1002 561L1002 434L1085 434L1085 492L1169 492L1169 455L1252 455L1252 495L1336 495L1336 517L1419 517L1419 492L1503 492L1503 496L1586 496L1586 512L1670 512L1670 463L1753 463L1753 560L1837 560L1837 571L1920 571L1920 551L1920 0L1920 0L1837 0L1837 0L1753 0L1753 0L1670 0L1670 0L1586 0L1586 0L1503 0L1503 0L1419 0L1419 0L1336 0L1336 0L1252 0L1252 0L1169 0L1169 0L1085 0L1085 0L1002 0L1002 0L918 0L918 0L835 0L835 0L751 0L751 0L668 0L668 0L584 0L584 0L501 0L501 0L417 0L417 0L334 0L334 0L250 0L250 0L167 0L167 0L83 0L83 0L0 0Z" fill="#abbd00"></path><path d="M0 337L83 337L83 419L167 419L167 367L250 367L250 420L334 420L334 476L417 476L417 345L501 345L501 345L584 345L584 384L668 384L668 482L751 482L751 356L835 356L835 379L918 379L918 431L1002 431L1002 445L1085 445L1085 482L1169 482L1169 459L1252 459L1252 442L1336 442L1336 437L1419 437L1419 394L1503 394L1503 420L1586 420L1586 332L1670 332L1670 461L1753 461L1753 496L1837 496L1837 369L1920 369L1920 450L1920 0L1920 0L1837 0L1837 0L1753 0L1753 0L1670 0L1670 0L1586 0L1586 0L1503 0L1503 0L1419 0L1419 0L1336 0L1336 0L1252 0L1252 0L1169 0L1169 0L1085 0L1085 0L1002 0L1002 0L918 0L918 0L835 0L835 0L751 0L751 0L668 0L668 0L584 0L584 0L501 0L501 0L417 0L417 0L334 0L334 0L250 0L250 0L167 0L167 0L83 0L83 0L0 0Z" fill="#b2c400"></path><path d="M0 397L83 397L83 385L167 385L167 338L250 338L250 368L334 368L334 313L417 313L417 274L501 274L501 362L584 362L584 349L668 349L668 325L751 325L751 338L835 338L835 366L918 366L918 262L1002 262L1002 267L1085 267L1085 330L1169 330L1169 291L1252 291L1252 352L1336 352L1336 335L1419 335L1419 372L1503 372L1503 297L1586 297L1586 251L1670 251L1670 388L1753 388L1753 345L1837 345L1837 300L1920 300L1920 376L1920 0L1920 0L1837 0L1837 0L1753 0L1753 0L1670 0L1670 0L1586 0L1586 0L1503 0L1503 0L1419 0L1419 0L1336 0L1336 0L1252 0L1252 0L1169 0L1169 0L1085 0L1085 0L1002 0L1002 0L918 0L918 0L835 0L835 0L751 0L751 0L668 0L668 0L584 0L584 0L501 0L501 0L417 0L417 0L334 0L334 0L250 0L250 0L167 0L167 0L83 0L83 0L0 0Z" fill="#b9cc00"></path><path d="M0 285L83 285L83 304L167 304L167 268L250 268L250 254L334 254L334 281L417 281L417 327L501 327L501 297L584 297L584 169L668 169L668 309L751 309L751 322L835 322L835 286L918 286L918 307L1002 307L1002 285L1085 285L1085 220L1169 220L1169 250L1252 250L1252 295L1336 295L1336 168L1419 168L1419 195L1503 195L1503 202L1586 202L1586 249L1670 249L1670 323L1753 323L1753 167L1837 167L1837 230L1920 230L1920 220L1920 0L1920 0L1837 0L1837 0L1753 0L1753 0L1670 0L1670 0L1586 0L1586 0L1503 0L1503 0L1419 0L1419 0L1336 0L1336 0L1252 0L1252 0L1169 0L1169 0L1085 0L1085 0L1002 0L1002 0L918 0L918 0L835 0L835 0L751 0L751 0L668 0L668 0L584 0L584 0L501 0L501 0L417 0L417 0L334 0L334 0L250 0L250 0L167 0L167 0L83 0L83 0L0 0Z" fill="#c0d400"></path><path d="M0 204L83 204L83 160L167 160L167 137L250 137L250 184L334 184L334 152L417 152L417 176L501 176L501 186L584 186L584 242L668 242L668 235L751 235L751 177L835 177L835 185L918 185L918 230L1002 230L1002 221L1085 221L1085 222L1169 222L1169 122L1252 122L1252 180L1336 180L1336 225L1419 225L1419 120L1503 120L1503 235L1586 235L1586 102L1670 102L1670 181L1753 181L1753 158L1837 158L1837 103L1920 103L1920 169L1920 0L1920 0L1837 0L1837 0L1753 0L1753 0L1670 0L1670 0L1586 0L1586 0L1503 0L1503 0L1419 0L1419 0L1336 0L1336 0L1252 0L1252 0L1169 0L1169 0L1085 0L1085 0L1002 0L1002 0L918 0L918 0L835 0L835 0L751 0L751 0L668 0L668 0L584 0L584 0L501 0L501 0L417 0L417 0L334 0L334 0L250 0L250 0L167 0L167 0L83 0L83 0L0 0Z" fill="#c7db00"></path><path d="M0 128L83 128L83 13L167 13L167 155L250 155L250 93L334 93L334 154L417 154L417 138L501 138L501 134L584 134L584 148L668 148L668 137L751 137L751 11L835 11L835 156L918 156L918 20L1002 20L1002 75L1085 75L1085 26L1169 26L1169 136L1252 136L1252 55L1336 55L1336 74L1419 74L1419 1L1503 1L1503 103L1586 103L1586 154L1670 154L1670 25L1753 25L1753 57L1837 57L1837 54L1920 54L1920 117L1920 0L1920 0L1837 0L1837 0L1753 0L1753 0L1670 0L1670 0L1586 0L1586 0L1503 0L1503 0L1419 0L1419 0L1336 0L1336 0L1252 0L1252 0L1169 0L1169 0L1085 0L1085 0L1002 0L1002 0L918 0L918 0L835 0L835 0L751 0L751 0L668 0L668 0L584 0L584 0L501 0L501 0L417 0L417 0L334 0L334 0L250 0L250 0L167 0L167 0L83 0L83 0L0 0Z" fill="#cee300"></path></svg>