<svg id="visual" viewBox="0 0 1920 1080" width="1920" height="1080" xmlns="http://www.w3.org/2000/svg" xmlns:xlink="http://www.w3.org/1999/xlink" version="1.1"><rect x="0" y="0" width="1920" height="1080" fill="#140021"></rect><path d="M0 574L128 574L128 580L256 580L256 632L384 632L384 571L512 571L512 566L640 566L640 628L768 628L768 609L896 609L896 600L1024 600L1024 614L1152 614L1152 588L1280 588L1280 584L1408 584L1408 584L1536 584L1536 619L1664 619L1664 622L1792 622L1792 584L1920 584L1920 623L1920 0L1920 0L1792 0L1792 0L1664 0L1664 0L1536 0L1536 0L1408 0L1408 0L1280 0L1280 0L1152 0L1152 0L1024 0L1024 0L896 0L896 0L768 0L768 0L640 0L640 0L512 0L512 0L384 0L384 0L256 0L256 0L128 0L128 0L0 0Z" fill="#839100"></path><path d="M0 532L128 532L128 542L256 542L256 535L384 535L384 547L512 547L512 525L640 525L640 520L768 520L768 527L896 527L896 582L1024 582L1024 525L1152 525L1152 556L1280 556L1280 556L1408 556L1408 552L1536 552L1536 572L1664 572L1664 545L1792 545L1792 516L1920 516L1920 571L1920 0L1920 0L1792 0L1792 0L1664 0L1664 0L1536 0L1536 0L1408 0L1408 0L1280 0L1280 0L1152 0L1152 0L1024 0L1024 0L896 0L896 0L768 0L768 0L640 0L640 0L512 0L512 0L384 0L384 0L256 0L256 0L128 0L128 0L0 0Z" fill="#8a9800"></path><path d="M0 476L128 476L128 490L256 490L256 475L384 475L384 511L512 511L512 485L640 485L640 494L768 494L768 481L896 481L896 522L1024 522L1024 510L1152 510L1152 465L1280 465L1280 483L1408 483L1408 485L1536 485L1536 469L1664 469L1664 528L1792 528L1792 514L1920 514L1920 510L1920 0L1920 0L1792 0L1792 0L1664 0L1664 0L1536 0L1536 0L1408 0L1408 0L1280 0L1280 0L1152 0L1152 0L1024 0L1024 0L896 0L896 0L768 0L768 0L640 0L640 0L512 0L512 0L384 0L384 0L256 0L256 0L128 0L128 0L0 0Z" fill="#909f00"></path><path d="M0 446L128 446L128 436L256 436L256 458L384 458L384 437L512 437L512 448L640 448L640 441L768 441L768 482L896 482L896 448L1024 448L1024 476L1152 476L1152 445L1280 445L1280 414L1408 414L1408 482L1536 482L1536 444L1664 444L1664 459L1792 459L1792 458L1920 458L1920 426L1920 0L1920 0L1792 0L1792 0L1664 0L1664 0L1536 0L1536 0L1408 0L1408 0L1280 0L1280 0L1152 0L1152 0L1024 0L1024 0L896 0L896 0L768 0L768 0L640 0L640 0L512 0L512 0L384 0L384 0L256 0L256 0L128 0L128 0L0 0Z" fill="#97a700"></path><path d="M0 391L128 391L128 393L256 393L256 384L384 384L384 431L512 431L512 370L640 370L640 383L768 383L768 378L896 378L896 401L1024 401L1024 399L1152 399L1152 368L1280 368L1280 404L1408 404L1408 374L1536 374L1536 392L1664 392L1664 379L1792 379L1792 394L1920 394L1920 376L1920 0L1920 0L1792 0L1792 0L1664 0L1664 0L1536 0L1536 0L1408 0L1408 0L1280 0L1280 0L1152 0L1152 0L1024 0L1024 0L896 0L896 0L768 0L768 0L640 0L640 0L512 0L512 0L384 0L384 0L256 0L256 0L128 0L128 0L0 0Z" fill="#9eae00"></path><path d="M0 367L128 367L128 316L256 316L256 381L384 381L384 319L512 319L512 360L640 360L640 344L768 344L768 375L896 375L896 348L1024 348L1024 356L1152 356L1152 326L1280 326L1280 341L1408 341L1408 380L1536 380L1536 347L1664 347L1664 337L1792 337L1792 379L1920 379L1920 313L1920 0L1920 0L1792 0L1792 0L1664 0L1664 0L1536 0L1536 0L1408 0L1408 0L1280 0L1280 0L1152 0L1152 0L1024 0L1024 0L896 0L896 0L768 0L768 0L640 0L640 0L512 0L512 0L384 0L384 0L256 0L256 0L128 0L128 0L0 0Z" fill="#a5b500"></path><path d="M0 295L128 295L128 289L256 289L256 270L384 270L384 323L512 323L512 277L640 277L640 316L768 316L768 303L896 303L896 313L1024 313L1024 289L1152 289L1152 288L1280 288L1280 290L1408 290L1408 284L1536 284L1536 303L1664 303L1664 316L1792 316L1792 329L1920 329L1920 302L1920 0L1920 0L1792 0L1792 0L1664 0L1664 0L1536 0L1536 0L1408 0L1408 0L1280 0L1280 0L1152 0L1152 0L1024 0L1024 0L896 0L896 0L768 0L768 0L640 0L640 0L512 0L512 0L384 0L384 0L256 0L256 0L128 0L128 0L0 0Z" fill="#abbd00"></path><path d="M0 251L128 251L128 265L256 265L256 246L384 246L384 221L512 221L512 243L640 243L640 262L768 262L768 281L896 281L896 280L1024 280L1024 257L1152 257L1152 223L1280 223L1280 229L1408 229L1408 275L1536 275L1536 214L1664 214L1664 257L1792 257L1792 239L1920 239L1920 265L1920 0L1920 0L1792 0L1792 0L1664 0L1664 0L1536 0L1536 0L1408 0L1408 0L1280 0L1280 0L1152 0L1152 0L1024 0L1024 0L896 0L896 0L768 0L768 0L640 0L640 0L512 0L512 0L384 0L384 0L256 0L256 0L128 0L128 0L0 0Z" fill="#b2c400"></path><path d="M0 232L128 232L128 165L256 165L256 181L384 181L384 232L512 232L512 167L640 167L640 181L768 181L768 197L896 197L896 222L1024 222L1024 212L1152 212L1152 230L1280 230L1280 165L1408 165L1408 197L1536 197L1536 217L1664 217L1664 180L1792 180L1792 214L1920 214L1920 227L1920 0L1920 0L1792 0L1792 0L1664 0L1664 0L1536 0L1536 0L1408 0L1408 0L1280 0L1280 0L1152 0L1152 0L1024 0L1024 0L896 0L896 0L768 0L768 0L640 0L640 0L512 0L512 0L384 0L384 0L256 0L256 0L128 0L128 0L0 0Z" fill="#b9cc00"></path><path d="M0 134L128 134L128 114L256 114L256 121L384 121L384 177L512 177L512 135L640 135L640 141L768 141L768 115L896 115L896 153L1024 153L1024 144L1152 144L1152 164L1280 164L1280 181L1408 181L1408 146L1536 146L1536 167L1664 167L1664 128L1792 128L1792 139L1920 139L1920 134L1920 0L1920 0L1792 0L1792 0L1664 0L1664 0L1536 0L1536 0L1408 0L1408 0L1280 0L1280 0L1152 0L1152 0L1024 0L1024 0L896 0L896 0L768 0L768 0L640 0L640 0L512 0L512 0L384 0L384 0L256 0L256 0L128 0L128 0L0 0Z" fill="#c0d400"></path><path d="M0 112L128 112L128 75L256 75L256 129L384 129L384 94L512 94L512 76L640 76L640 107L768 107L768 77L896 77L896 99L1024 99L1024 97L1152 97L1152 74L1280 74L1280 103L1408 103L1408 128L1536 128L1536 115L1664 115L1664 97L1792 97L1792 111L1920 111L1920 79L1920 0L1920 0L1792 0L1792 0L1664 0L1664 0L1536 0L1536 0L1408 0L1408 0L1280 0L1280 0L1152 0L1152 0L1024 0L1024 0L896 0L896 0L768 0L768 0L640 0L640 0L512 0L512 0L384 0L384 0L256 0L256 0L128 0L128 0L0 0Z" fill="#c7db00"></path><path d="M0 20L128 20L128 76L256 76L256 48L384 48L384 75L512 75L512 49L640 49L640 25L768 25L768 46L896 46L896 19L1024 19L1024 53L1152 53L1152 59L1280 59L1280 38L1408 38L1408 18L1536 18L1536 50L1664 50L1664 79L1792 79L1792 31L1920 31L1920 82L1920 0L1920 0L1792 0L1792 0L1664 0L1664 0L1536 0L1536 0L1408 0L1408 0L1280 0L1280 0L1152 0L1152 0L1024 0L1024 0L896 0L896 0L768 0L768 0L640 0L640 0L512 0L512 0L384 0L384 0L256 0L256 0L128 0L128 0L0 0Z" fill="#cee300"></path></svg>