<svg id="visual" viewBox="0 0 1920 1080" width="1920" height="1080" xmlns="http://www.w3.org/2000/svg" xmlns:xlink="http://www.w3.org/1999/xlink" version="1.1"><rect x="0" y="0" width="1920" height="1080" fill="#bf9e38"></rect><path d="M0 689L128 689L128 734L256 734L256 690L384 690L384 657L512 657L512 710L640 710L640 698L768 698L768 731L896 731L896 711L1024 711L1024 702L1152 702L1152 692L1280 692L1280 665L1408 665L1408 668L1536 668L1536 676L1664 676L1664 718L1792 718L1792 733L1920 733L1920 726L1920 0L1920 0L1792 0L1792 0L1664 0L1664 0L1536 0L1536 0L1408 0L1408 0L1280 0L1280 0L1152 0L1152 0L1024 0L1024 0L896 0L896 0L768 0L768 0L640 0L640 0L512 0L512 0L384 0L384 0L256 0L256 0L128 0L128 0L0 0Z" fill="#839100"></path><path d="M0 620L128 620L128 615L256 615L256 644L384 644L384 614L512 614L512 636L640 636L640 628L768 628L768 676L896 676L896 672L1024 672L1024 605L1152 605L1152 640L1280 640L1280 655L1408 655L1408 632L1536 632L1536 606L1664 606L1664 654L1792 654L1792 648L1920 648L1920 605L1920 0L1920 0L1792 0L1792 0L1664 0L1664 0L1536 0L1536 0L1408 0L1408 0L1280 0L1280 0L1152 0L1152 0L1024 0L1024 0L896 0L896 0L768 0L768 0L640 0L640 0L512 0L512 0L384 0L384 0L256 0L256 0L128 0L128 0L0 0Z" fill="#8a9800"></path><path d="M0 575L128 575L128 574L256 574L256 553L384 553L384 565L512 565L512 580L640 580L640 578L768 578L768 585L896 585L896 575L1024 575L1024 573L1152 573L1152 606L1280 606L1280 592L1408 592L1408 573L1536 573L1536 591L1664 591L1664 565L1792 565L1792 570L1920 570L1920 583L1920 0L1920 0L1792 0L1792 0L1664 0L1664 0L1536 0L1536 0L1408 0L1408 0L1280 0L1280 0L1152 0L1152 0L1024 0L1024 0L896 0L896 0L768 0L768 0L640 0L640 0L512 0L512 0L384 0L384 0L256 0L256 0L128 0L128 0L0 0Z" fill="#909f00"></path><path d="M0 488L128 488L128 523L256 523L256 503L384 503L384 486L512 486L512 552L640 552L640 494L768 494L768 547L896 547L896 488L1024 488L1024 508L1152 508L1152 495L1280 495L1280 537L1408 537L1408 491L1536 491L1536 483L1664 483L1664 504L1792 504L1792 525L1920 525L1920 508L1920 0L1920 0L1792 0L1792 0L1664 0L1664 0L1536 0L1536 0L1408 0L1408 0L1280 0L1280 0L1152 0L1152 0L1024 0L1024 0L896 0L896 0L768 0L768 0L640 0L640 0L512 0L512 0L384 0L384 0L256 0L256 0L128 0L128 0L0 0Z" fill="#97a700"></path><path d="M0 485L128 485L128 465L256 465L256 428L384 428L384 483L512 483L512 479L640 479L640 470L768 470L768 437L896 437L896 490L1024 490L1024 476L1152 476L1152 449L1280 449L1280 429L1408 429L1408 503L1536 503L1536 480L1664 480L1664 492L1792 492L1792 450L1920 450L1920 470L1920 0L1920 0L1792 0L1792 0L1664 0L1664 0L1536 0L1536 0L1408 0L1408 0L1280 0L1280 0L1152 0L1152 0L1024 0L1024 0L896 0L896 0L768 0L768 0L640 0L640 0L512 0L512 0L384 0L384 0L256 0L256 0L128 0L128 0L0 0Z" fill="#9eae00"></path><path d="M0 367L128 367L128 400L256 400L256 375L384 375L384 438L512 438L512 398L640 398L640 414L768 414L768 386L896 386L896 408L1024 408L1024 414L1152 414L1152 374L1280 374L1280 445L1408 445L1408 429L1536 429L1536 383L1664 383L1664 433L1792 433L1792 380L1920 380L1920 431L1920 0L1920 0L1792 0L1792 0L1664 0L1664 0L1536 0L1536 0L1408 0L1408 0L1280 0L1280 0L1152 0L1152 0L1024 0L1024 0L896 0L896 0L768 0L768 0L640 0L640 0L512 0L512 0L384 0L384 0L256 0L256 0L128 0L128 0L0 0Z" fill="#a5b500"></path><path d="M0 367L128 367L128 341L256 341L256 366L384 366L384 362L512 362L512 334L640 334L640 342L768 342L768 343L896 343L896 335L1024 335L1024 327L1152 327L1152 317L1280 317L1280 377L1408 377L1408 335L1536 335L1536 343L1664 343L1664 324L1792 324L1792 308L1920 308L1920 347L1920 0L1920 0L1792 0L1792 0L1664 0L1664 0L1536 0L1536 0L1408 0L1408 0L1280 0L1280 0L1152 0L1152 0L1024 0L1024 0L896 0L896 0L768 0L768 0L640 0L640 0L512 0L512 0L384 0L384 0L256 0L256 0L128 0L128 0L0 0Z" fill="#abbd00"></path><path d="M0 310L128 310L128 310L256 310L256 302L384 302L384 285L512 285L512 321L640 321L640 283L768 283L768 266L896 266L896 283L1024 283L1024 319L1152 319L1152 284L1280 284L1280 284L1408 284L1408 255L1536 255L1536 283L1664 283L1664 265L1792 265L1792 284L1920 284L1920 289L1920 0L1920 0L1792 0L1792 0L1664 0L1664 0L1536 0L1536 0L1408 0L1408 0L1280 0L1280 0L1152 0L1152 0L1024 0L1024 0L896 0L896 0L768 0L768 0L640 0L640 0L512 0L512 0L384 0L384 0L256 0L256 0L128 0L128 0L0 0Z" fill="#b2c400"></path><path d="M0 207L128 207L128 264L256 264L256 238L384 238L384 261L512 261L512 241L640 241L640 250L768 250L768 265L896 265L896 271L1024 271L1024 203L1152 203L1152 271L1280 271L1280 255L1408 255L1408 206L1536 206L1536 270L1664 270L1664 257L1792 257L1792 259L1920 259L1920 192L1920 0L1920 0L1792 0L1792 0L1664 0L1664 0L1536 0L1536 0L1408 0L1408 0L1280 0L1280 0L1152 0L1152 0L1024 0L1024 0L896 0L896 0L768 0L768 0L640 0L640 0L512 0L512 0L384 0L384 0L256 0L256 0L128 0L128 0L0 0Z" fill="#b9cc00"></path><path d="M0 161L128 161L128 152L256 152L256 207L384 207L384 138L512 138L512 152L640 152L640 134L768 134L768 175L896 175L896 142L1024 142L1024 179L1152 179L1152 168L1280 168L1280 203L1408 203L1408 168L1536 168L1536 139L1664 139L1664 161L1792 161L1792 146L1920 146L1920 139L1920 0L1920 0L1792 0L1792 0L1664 0L1664 0L1536 0L1536 0L1408 0L1408 0L1280 0L1280 0L1152 0L1152 0L1024 0L1024 0L896 0L896 0L768 0L768 0L640 0L640 0L512 0L512 0L384 0L384 0L256 0L256 0L128 0L128 0L0 0Z" fill="#c0d400"></path><path d="M0 115L128 115L128 141L256 141L256 94L384 94L384 142L512 142L512 131L640 131L640 139L768 139L768 139L896 139L896 128L1024 128L1024 128L1152 128L1152 146L1280 146L1280 151L1408 151L1408 110L1536 110L1536 117L1664 117L1664 81L1792 81L1792 81L1920 81L1920 123L1920 0L1920 0L1792 0L1792 0L1664 0L1664 0L1536 0L1536 0L1408 0L1408 0L1280 0L1280 0L1152 0L1152 0L1024 0L1024 0L896 0L896 0L768 0L768 0L640 0L640 0L512 0L512 0L384 0L384 0L256 0L256 0L128 0L128 0L0 0Z" fill="#c7db00"></path><path d="M0 96L128 96L128 82L256 82L256 34L384 34L384 68L512 68L512 82L640 82L640 53L768 53L768 74L896 74L896 32L1024 32L1024 78L1152 78L1152 19L1280 19L1280 75L1408 75L1408 92L1536 92L1536 43L1664 43L1664 19L1792 19L1792 31L1920 31L1920 19L1920 0L1920 0L1792 0L1792 0L1664 0L1664 0L1536 0L1536 0L1408 0L1408 0L1280 0L1280 0L1152 0L1152 0L1024 0L1024 0L896 0L896 0L768 0L768 0L640 0L640 0L512 0L512 0L384 0L384 0L256 0L256 0L128 0L128 0L0 0Z" fill="#cee300"></path></svg>