<svg id="visual" viewBox="0 0 1920 1080" width="1920" height="1080" xmlns="http://www.w3.org/2000/svg" xmlns:xlink="http://www.w3.org/1999/xlink" version="1.1"><rect x="0" y="0" width="1920" height="1080" fill="#F5730A"></rect><path d="M0 693L128 693L128 689L256 689L256 701L384 701L384 666L512 666L512 666L640 666L640 682L768 682L768 674L896 674L896 698L1024 698L1024 664L1152 664L1152 737L1280 737L1280 730L1408 730L1408 692L1536 692L1536 732L1664 732L1664 681L1792 681L1792 732L1920 732L1920 694L1920 0L1920 0L1792 0L1792 0L1664 0L1664 0L1536 0L1536 0L1408 0L1408 0L1280 0L1280 0L1152 0L1152 0L1024 0L1024 0L896 0L896 0L768 0L768 0L640 0L640 0L512 0L512 0L384 0L384 0L256 0L256 0L128 0L128 0L0 0Z" fill="#839100"></path><path d="M0 630L128 630L128 657L256 657L256 643L384 643L384 609L512 609L512 619L640 619L640 661L768 661L768 630L896 630L896 666L1024 666L1024 635L1152 635L1152 660L1280 660L1280 674L1408 674L1408 610L1536 610L1536 658L1664 658L1664 655L1792 655L1792 661L1920 661L1920 640L1920 0L1920 0L1792 0L1792 0L1664 0L1664 0L1536 0L1536 0L1408 0L1408 0L1280 0L1280 0L1152 0L1152 0L1024 0L1024 0L896 0L896 0L768 0L768 0L640 0L640 0L512 0L512 0L384 0L384 0L256 0L256 0L128 0L128 0L0 0Z" fill="#8a9800"></path><path d="M0 561L128 561L128 561L256 561L256 555L384 555L384 543L512 543L512 551L640 551L640 547L768 547L768 568L896 568L896 540L1024 540L1024 610L1152 610L1152 599L1280 599L1280 566L1408 566L1408 601L1536 601L1536 617L1664 617L1664 594L1792 594L1792 568L1920 568L1920 608L1920 0L1920 0L1792 0L1792 0L1664 0L1664 0L1536 0L1536 0L1408 0L1408 0L1280 0L1280 0L1152 0L1152 0L1024 0L1024 0L896 0L896 0L768 0L768 0L640 0L640 0L512 0L512 0L384 0L384 0L256 0L256 0L128 0L128 0L0 0Z" fill="#909f00"></path><path d="M0 518L128 518L128 506L256 506L256 562L384 562L384 540L512 540L512 532L640 532L640 544L768 544L768 559L896 559L896 555L1024 555L1024 492L1152 492L1152 508L1280 508L1280 520L1408 520L1408 512L1536 512L1536 530L1664 530L1664 502L1792 502L1792 557L1920 557L1920 539L1920 0L1920 0L1792 0L1792 0L1664 0L1664 0L1536 0L1536 0L1408 0L1408 0L1280 0L1280 0L1152 0L1152 0L1024 0L1024 0L896 0L896 0L768 0L768 0L640 0L640 0L512 0L512 0L384 0L384 0L256 0L256 0L128 0L128 0L0 0Z" fill="#97a700"></path><path d="M0 469L128 469L128 470L256 470L256 473L384 473L384 463L512 463L512 425L640 425L640 488L768 488L768 489L896 489L896 494L1024 494L1024 425L1152 425L1152 484L1280 484L1280 495L1408 495L1408 464L1536 464L1536 458L1664 458L1664 465L1792 465L1792 467L1920 467L1920 486L1920 0L1920 0L1792 0L1792 0L1664 0L1664 0L1536 0L1536 0L1408 0L1408 0L1280 0L1280 0L1152 0L1152 0L1024 0L1024 0L896 0L896 0L768 0L768 0L640 0L640 0L512 0L512 0L384 0L384 0L256 0L256 0L128 0L128 0L0 0Z" fill="#9eae00"></path><path d="M0 433L128 433L128 391L256 391L256 381L384 381L384 444L512 444L512 434L640 434L640 423L768 423L768 436L896 436L896 427L1024 427L1024 393L1152 393L1152 366L1280 366L1280 399L1408 399L1408 415L1536 415L1536 415L1664 415L1664 374L1792 374L1792 403L1920 403L1920 437L1920 0L1920 0L1792 0L1792 0L1664 0L1664 0L1536 0L1536 0L1408 0L1408 0L1280 0L1280 0L1152 0L1152 0L1024 0L1024 0L896 0L896 0L768 0L768 0L640 0L640 0L512 0L512 0L384 0L384 0L256 0L256 0L128 0L128 0L0 0Z" fill="#a5b500"></path><path d="M0 308L128 308L128 357L256 357L256 378L384 378L384 374L512 374L512 373L640 373L640 383L768 383L768 338L896 338L896 346L1024 346L1024 336L1152 336L1152 342L1280 342L1280 370L1408 370L1408 368L1536 368L1536 368L1664 368L1664 358L1792 358L1792 386L1920 386L1920 335L1920 0L1920 0L1792 0L1792 0L1664 0L1664 0L1536 0L1536 0L1408 0L1408 0L1280 0L1280 0L1152 0L1152 0L1024 0L1024 0L896 0L896 0L768 0L768 0L640 0L640 0L512 0L512 0L384 0L384 0L256 0L256 0L128 0L128 0L0 0Z" fill="#abbd00"></path><path d="M0 329L128 329L128 311L256 311L256 303L384 303L384 282L512 282L512 319L640 319L640 288L768 288L768 262L896 262L896 261L1024 261L1024 269L1152 269L1152 277L1280 277L1280 325L1408 325L1408 318L1536 318L1536 292L1664 292L1664 274L1792 274L1792 294L1920 294L1920 307L1920 0L1920 0L1792 0L1792 0L1664 0L1664 0L1536 0L1536 0L1408 0L1408 0L1280 0L1280 0L1152 0L1152 0L1024 0L1024 0L896 0L896 0L768 0L768 0L640 0L640 0L512 0L512 0L384 0L384 0L256 0L256 0L128 0L128 0L0 0Z" fill="#b2c400"></path><path d="M0 256L128 256L128 232L256 232L256 246L384 246L384 198L512 198L512 260L640 260L640 260L768 260L768 232L896 232L896 235L1024 235L1024 262L1152 262L1152 260L1280 260L1280 191L1408 191L1408 245L1536 245L1536 266L1664 266L1664 231L1792 231L1792 213L1920 213L1920 220L1920 0L1920 0L1792 0L1792 0L1664 0L1664 0L1536 0L1536 0L1408 0L1408 0L1280 0L1280 0L1152 0L1152 0L1024 0L1024 0L896 0L896 0L768 0L768 0L640 0L640 0L512 0L512 0L384 0L384 0L256 0L256 0L128 0L128 0L0 0Z" fill="#b9cc00"></path><path d="M0 156L128 156L128 173L256 173L256 205L384 205L384 139L512 139L512 152L640 152L640 170L768 170L768 189L896 189L896 203L1024 203L1024 161L1152 161L1152 184L1280 184L1280 206L1408 206L1408 138L1536 138L1536 189L1664 189L1664 207L1792 207L1792 164L1920 164L1920 149L1920 0L1920 0L1792 0L1792 0L1664 0L1664 0L1536 0L1536 0L1408 0L1408 0L1280 0L1280 0L1152 0L1152 0L1024 0L1024 0L896 0L896 0L768 0L768 0L640 0L640 0L512 0L512 0L384 0L384 0L256 0L256 0L128 0L128 0L0 0Z" fill="#c0d400"></path><path d="M0 118L128 118L128 99L256 99L256 91L384 91L384 127L512 127L512 100L640 100L640 84L768 84L768 134L896 134L896 82L1024 82L1024 125L1152 125L1152 91L1280 91L1280 90L1408 90L1408 110L1536 110L1536 97L1664 97L1664 91L1792 91L1792 108L1920 108L1920 143L1920 0L1920 0L1792 0L1792 0L1664 0L1664 0L1536 0L1536 0L1408 0L1408 0L1280 0L1280 0L1152 0L1152 0L1024 0L1024 0L896 0L896 0L768 0L768 0L640 0L640 0L512 0L512 0L384 0L384 0L256 0L256 0L128 0L128 0L0 0Z" fill="#c7db00"></path><path d="M0 27L128 27L128 24L256 24L256 71L384 71L384 45L512 45L512 20L640 20L640 46L768 46L768 27L896 27L896 80L1024 80L1024 72L1152 72L1152 25L1280 25L1280 52L1408 52L1408 90L1536 90L1536 86L1664 86L1664 73L1792 73L1792 50L1920 50L1920 66L1920 0L1920 0L1792 0L1792 0L1664 0L1664 0L1536 0L1536 0L1408 0L1408 0L1280 0L1280 0L1152 0L1152 0L1024 0L1024 0L896 0L896 0L768 0L768 0L640 0L640 0L512 0L512 0L384 0L384 0L256 0L256 0L128 0L128 0L0 0Z" fill="#cee300"></path></svg>