<svg id="visual" viewBox="0 0 900 450" width="900" height="450" xmlns="http://www.w3.org/2000/svg" xmlns:xlink="http://www.w3.org/1999/xlink" version="1.1"><rect x="0" y="0" width="900" height="450" fill="#001220"></rect><path d="M0 246L18.8 246.2C37.7 246.3 75.3 246.7 112.8 247.2C150.3 247.7 187.7 248.3 225.2 245.2C262.7 242 300.3 235 337.8 232.3C375.3 229.7 412.7 231.3 450.2 231.3C487.7 231.3 525.3 229.7 562.8 228.2C600.3 226.7 637.7 225.3 675.2 226.7C712.7 228 750.3 232 787.8 235.7C825.3 239.3 862.7 242.7 881.3 244.3L900 246L900 451L881.3 451C862.7 451 825.3 451 787.8 451C750.3 451 712.7 451 675.2 451C637.7 451 600.3 451 562.8 451C525.3 451 487.7 451 450.2 451C412.7 451 375.3 451 337.8 451C300.3 451 262.7 451 225.2 451C187.7 451 150.3 451 112.8 451C75.3 451 37.7 451 18.8 451L0 451Z" fill="#fa7268"></path><path d="M0 274L18.8 274.2C37.7 274.3 75.3 274.7 112.8 276.3C150.3 278 187.7 281 225.2 277.5C262.7 274 300.3 264 337.8 261.3C375.3 258.7 412.7 263.3 450.2 262.8C487.7 262.3 525.3 256.7 562.8 254.8C600.3 253 637.7 255 675.2 257.2C712.7 259.3 750.3 261.7 787.8 266.5C825.3 271.3 862.7 278.7 881.3 282.3L900 286L900 451L881.3 451C862.7 451 825.3 451 787.8 451C750.3 451 712.7 451 675.2 451C637.7 451 600.3 451 562.8 451C525.3 451 487.7 451 450.2 451C412.7 451 375.3 451 337.8 451C300.3 451 262.7 451 225.2 451C187.7 451 150.3 451 112.8 451C75.3 451 37.7 451 18.8 451L0 451Z" fill="#f16367"></path><path d="M0 309L18.8 308.3C37.7 307.7 75.3 306.3 112.8 306.8C150.3 307.3 187.7 309.7 225.2 309C262.7 308.3 300.3 304.7 337.8 305.3C375.3 306 412.7 311 450.2 311.7C487.7 312.3 525.3 308.7 562.8 304.7C600.3 300.7 637.7 296.3 675.2 296.2C712.7 296 750.3 300 787.8 304.2C825.3 308.3 862.7 312.7 881.3 314.8L900 317L900 451L881.3 451C862.7 451 825.3 451 787.8 451C750.3 451 712.7 451 675.2 451C637.7 451 600.3 451 562.8 451C525.3 451 487.7 451 450.2 451C412.7 451 375.3 451 337.8 451C300.3 451 262.7 451 225.2 451C187.7 451 150.3 451 112.8 451C75.3 451 37.7 451 18.8 451L0 451Z" fill="#e85467"></path><path d="M0 341L18.8 338.5C37.7 336 75.3 331 112.8 332.3C150.3 333.7 187.7 341.3 225.2 343.3C262.7 345.3 300.3 341.7 337.8 338.5C375.3 335.3 412.7 332.7 450.2 331C487.7 329.3 525.3 328.7 562.8 328.2C600.3 327.7 637.7 327.3 675.2 328.8C712.7 330.3 750.3 333.7 787.8 333.8C825.3 334 862.7 331 881.3 329.5L900 328L900 451L881.3 451C862.7 451 825.3 451 787.8 451C750.3 451 712.7 451 675.2 451C637.7 451 600.3 451 562.8 451C525.3 451 487.7 451 450.2 451C412.7 451 375.3 451 337.8 451C300.3 451 262.7 451 225.2 451C187.7 451 150.3 451 112.8 451C75.3 451 37.7 451 18.8 451L0 451Z" fill="#de4467"></path><path d="M0 365L18.8 367.7C37.7 370.3 75.3 375.7 112.8 376.5C150.3 377.3 187.7 373.7 225.2 373.5C262.7 373.3 300.3 376.7 337.8 378.5C375.3 380.3 412.7 380.7 450.2 380.7C487.7 380.7 525.3 380.3 562.8 378.5C600.3 376.7 637.7 373.3 675.2 372.8C712.7 372.3 750.3 374.7 787.8 375C825.3 375.3 862.7 373.7 881.3 372.8L900 372L900 451L881.3 451C862.7 451 825.3 451 787.8 451C750.3 451 712.7 451 675.2 451C637.7 451 600.3 451 562.8 451C525.3 451 487.7 451 450.2 451C412.7 451 375.3 451 337.8 451C300.3 451 262.7 451 225.2 451C187.7 451 150.3 451 112.8 451C75.3 451 37.7 451 18.8 451L0 451Z" fill="#d23467"></path><path d="M0 408L18.8 408.3C37.7 408.7 75.3 409.3 112.8 409.2C150.3 409 187.7 408 225.2 407.2C262.7 406.3 300.3 405.7 337.8 404.5C375.3 403.3 412.7 401.7 450.2 400.7C487.7 399.7 525.3 399.3 562.8 401.3C600.3 403.3 637.7 407.7 675.2 409.8C712.7 412 750.3 412 787.8 412.2C825.3 412.3 862.7 412.7 881.3 412.8L900 413L900 451L881.3 451C862.7 451 825.3 451 787.8 451C750.3 451 712.7 451 675.2 451C637.7 451 600.3 451 562.8 451C525.3 451 487.7 451 450.2 451C412.7 451 375.3 451 337.8 451C300.3 451 262.7 451 225.2 451C187.7 451 150.3 451 112.8 451C75.3 451 37.7 451 18.8 451L0 451Z" fill="#c62368"></path></svg>