<svg id="visual" viewBox="0 0 900 600" width="900" height="600" xmlns="http://www.w3.org/2000/svg" xmlns:xlink="http://www.w3.org/1999/xlink" version="1.1"><rect x="0" y="0" width="900" height="600" fill="#140021"></rect><path d="M0 269L129 269L129 316L257 316L257 260L386 260L386 272L514 272L514 348L643 348L643 269L771 269L771 283L900 283L900 248L900 0L900 0L771 0L771 0L643 0L643 0L514 0L514 0L386 0L386 0L257 0L257 0L129 0L129 0L0 0Z" fill="#9900ff"></path><path d="M0 219L129 219L129 245L257 245L257 178L386 178L386 267L514 267L514 171L643 171L643 276L771 276L771 234L900 234L900 205L900 0L900 0L771 0L771 0L643 0L643 0L514 0L514 0L386 0L386 0L257 0L257 0L129 0L129 0L0 0Z" fill="#7700c6"></path><path d="M0 111L129 111L129 142L257 142L257 155L386 155L386 140L514 140L514 97L643 97L643 136L771 136L771 80L900 80L900 146L900 0L900 0L771 0L771 0L643 0L643 0L514 0L514 0L386 0L386 0L257 0L257 0L129 0L129 0L0 0Z" fill="#560090"></path></svg>