<svg id="visual" viewBox="0 0 900 450" width="900" height="450" xmlns="http://www.w3.org/2000/svg" xmlns:xlink="http://www.w3.org/1999/xlink" version="1.1"><path d="M0 168L30 167.2C60 166.3 120 164.7 180 162.3C240 160 300 157 360 155.5C420 154 480 154 540 154C600 154 660 154 720 156.3C780 158.7 840 163.3 870 165.7L900 168L900 0L870 0C840 0 780 0 720 0C660 0 600 0 540 0C480 0 420 0 360 0C300 0 240 0 180 0C120 0 60 0 30 0L0 0Z" fill="#6198ff"></path><path d="M0 343L30 343.8C60 344.7 120 346.3 180 346.3C240 346.3 300 344.7 360 343.8C420 343 480 343 540 341.5C600 340 660 337 720 336.3C780 335.7 840 337.3 870 338.2L900 339L900 166L870 163.7C840 161.3 780 156.7 720 154.3C660 152 600 152 540 152C480 152 420 152 360 153.5C300 155 240 158 180 160.3C120 162.7 60 164.3 30 165.2L0 166Z" fill="#004cbb"></path><path d="M0 451L30 451C60 451 120 451 180 451C240 451 300 451 360 451C420 451 480 451 540 451C600 451 660 451 720 451C780 451 840 451 870 451L900 451L900 337L870 336.2C840 335.3 780 333.7 720 334.3C660 335 600 338 540 339.5C480 341 420 341 360 341.8C300 342.7 240 344.3 180 344.3C120 344.3 60 342.7 30 341.8L0 341Z" fill="#6198ff"></path></svg>